<svg width="12" height="12" viewBox="0 0 12 12" fill="none" xmlns="http://www.w3.org/2000/svg">
<path d="M6 7.2C5.81111 7.2 5.65289 7.1424 5.52533 7.0272C5.39733 6.9124 5.33333 6.77 5.33333 6.6C5.33333 6.43 5.39733 6.2874 5.52533 6.1722C5.65289 6.0574 5.81111 6 6 6C6.18889 6 6.34733 6.0574 6.47533 6.1722C6.60289 6.2874 6.66667 6.43 6.66667 6.6C6.66667 6.77 6.60289 6.9124 6.47533 7.0272C6.34733 7.1424 6.18889 7.2 6 7.2ZM3.33333 7.2C3.14444 7.2 2.986 7.1424 2.858 7.0272C2.73044 6.9124 2.66667 6.77 2.66667 6.6C2.66667 6.43 2.73044 6.2874 2.858 6.1722C2.986 6.0574 3.14444 6 3.33333 6C3.52222 6 3.68067 6.0574 3.80867 6.1722C3.93622 6.2874 4 6.43 4 6.6C4 6.77 3.93622 6.9124 3.80867 7.0272C3.68067 7.1424 3.52222 7.2 3.33333 7.2ZM8.66667 7.2C8.47778 7.2 8.31956 7.1424 8.192 7.0272C8.064 6.9124 8 6.77 8 6.6C8 6.43 8.064 6.2874 8.192 6.1722C8.31956 6.0574 8.47778 6 8.66667 6C8.85556 6 9.01378 6.0574 9.14133 6.1722C9.26933 6.2874 9.33333 6.43 9.33333 6.6C9.33333 6.77 9.26933 6.9124 9.14133 7.0272C9.01378 7.1424 8.85556 7.2 8.66667 7.2ZM6 9.6C5.81111 9.6 5.65289 9.5424 5.52533 9.4272C5.39733 9.3124 5.33333 9.17 5.33333 9C5.33333 8.83 5.39733 8.6876 5.52533 8.5728C5.65289 8.4576 5.81111 8.4 6 8.4C6.18889 8.4 6.34733 8.4576 6.47533 8.5728C6.60289 8.6876 6.66667 8.83 6.66667 9C6.66667 9.17 6.60289 9.3124 6.47533 9.4272C6.34733 9.5424 6.18889 9.6 6 9.6ZM3.33333 9.6C3.14444 9.6 2.986 9.5424 2.858 9.4272C2.73044 9.3124 2.66667 9.17 2.66667 9C2.66667 8.83 2.73044 8.6876 2.858 8.5728C2.986 8.4576 3.14444 8.4 3.33333 8.4C3.52222 8.4 3.68067 8.4576 3.80867 8.5728C3.93622 8.6876 4 8.83 4 9C4 9.17 3.93622 9.3124 3.80867 9.4272C3.68067 9.5424 3.52222 9.6 3.33333 9.6ZM8.66667 9.6C8.47778 9.6 8.31956 9.5424 8.192 9.4272C8.064 9.3124 8 9.17 8 9C8 8.83 8.064 8.6876 8.192 8.5728C8.31956 8.4576 8.47778 8.4 8.66667 8.4C8.85556 8.4 9.01378 8.4576 9.14133 8.5728C9.26933 8.6876 9.33333 8.83 9.33333 9C9.33333 9.17 9.26933 9.3124 9.14133 9.4272C9.01378 9.5424 8.85556 9.6 8.66667 9.6ZM1.33333 12C0.966667 12 0.652667 11.8826 0.391333 11.6478C0.130444 11.4126 0 11.13 0 10.8V2.4C0 2.07 0.130444 1.7876 0.391333 1.5528C0.652667 1.3176 0.966667 1.2 1.33333 1.2H2V0.6C2 0.43 2.06378 0.2874 2.19133 0.1722C2.31933 0.0574 2.47778 0 2.66667 0C2.85556 0 3.014 0.0574 3.142 0.1722C3.26956 0.2874 3.33333 0.43 3.33333 0.6V1.2H8.66667V0.6C8.66667 0.43 8.73067 0.2874 8.85867 0.1722C8.98622 0.0574 9.14445 0 9.33333 0C9.52222 0 9.68045 0.0574 9.808 0.1722C9.936 0.2874 10 0.43 10 0.6V1.2H10.6667C11.0333 1.2 11.3473 1.3176 11.6087 1.5528C11.8696 1.7876 12 2.07 12 2.4V10.8C12 11.13 11.8696 11.4126 11.6087 11.6478C11.3473 11.8826 11.0333 12 10.6667 12H1.33333ZM1.33333 10.8H10.6667V4.8H1.33333V10.8Z" fill="#ffffff"/>
</svg>
