<svg width="18" height="17" viewBox="0 0 18 17" fill="none" xmlns="http://www.w3.org/2000/svg">
<g clip-path="url(#clip0_224_5)">
<path d="M0.757895 3.46545e-05C0.341053 3.46545e-05 0 0.382534 0 0.850033C0 1.31753 0.341053 1.70003 0.757895 1.70003H2.43966L4.42914 10.625C4.59739 11.3815 5.20219 11.9 5.89718 11.9H14.5895C15.2731 11.9 15.8536 11.3917 16.034 10.6514L18 2.55003H5.30526L5.68421 4.25003H16.034L14.5895 10.2H5.89718L3.90771 1.27503C3.82574 0.908946 3.63658 0.58431 3.37054 0.353132C3.1045 0.121954 2.77697 -0.00238487 2.44042 3.46545e-05H0.757895ZM13.6421 11.9C12.3954 11.9 11.3684 13.0518 11.3684 14.45C11.3684 15.8483 12.3954 17 13.6421 17C14.8888 17 15.9158 15.8483 15.9158 14.45C15.9158 13.0518 14.8888 11.9 13.6421 11.9ZM6.82105 11.9C5.57432 11.9 4.54737 13.0518 4.54737 14.45C4.54737 15.8483 5.57432 17 6.82105 17C8.06779 17 9.09474 15.8483 9.09474 14.45C9.09474 13.0518 8.06779 11.9 6.82105 11.9ZM6.82105 13.6C7.24775 13.6 7.57895 13.9723 7.57895 14.45C7.57895 14.9286 7.24699 15.3 6.82105 15.3C6.39436 15.3 6.06316 14.9277 6.06316 14.45C6.06316 13.9715 6.39512 13.6 6.82105 13.6ZM13.6421 13.6C14.0688 13.6 14.4 13.9723 14.4 14.45C14.4 14.9286 14.068 15.3 13.6421 15.3C13.2154 15.3 12.8842 14.9277 12.8842 14.45C12.8842 13.9715 13.2162 13.6 13.6421 13.6Z" fill="#436372"/>
</g>
<defs>
<clipPath id="clip0_224_5">
<rect width="18" height="17" fill="white"/>
</clipPath>
</defs>
</svg>
