<svg width="18" height="18" viewBox="0 0 18 18" fill="none" xmlns="http://www.w3.org/2000/svg">
<g clip-path="url(#clip0_224_11)">
<path d="M2.7 1.35C2.7 1.61701 2.62082 1.87801 2.47248 2.10002C2.32414 2.32203 2.1133 2.49506 1.86662 2.59724C1.61994 2.69942 1.3485 2.72615 1.08663 2.67406C0.824754 2.62197 0.584207 2.4934 0.395406 2.30459C0.206605 2.11579 0.0780305 1.87525 0.0259405 1.61337C-0.0261496 1.3515 0.000584936 1.08006 0.102763 0.833378C0.204942 0.586698 0.377974 0.375857 0.599981 0.227517C0.821987 0.0791769 1.083 7.28253e-07 1.35 7.28253e-07C1.70804 7.28253e-07 2.05142 0.142232 2.30459 0.395406C2.55777 0.64858 2.7 0.991958 2.7 1.35ZM9 7.28253e-07C8.733 7.28253e-07 8.47199 0.0791769 8.24998 0.227517C8.02797 0.375857 7.85494 0.586698 7.75276 0.833378C7.65058 1.08006 7.62385 1.3515 7.67594 1.61337C7.72803 1.87525 7.8566 2.11579 8.04541 2.30459C8.23421 2.4934 8.47475 2.62197 8.73663 2.67406C8.9985 2.72615 9.26994 2.69942 9.51662 2.59724C9.7633 2.49506 9.97414 2.32203 10.1225 2.10002C10.2708 1.87801 10.35 1.61701 10.35 1.35C10.35 0.991958 10.2078 0.64858 9.95459 0.395406C9.70142 0.142232 9.35804 7.28253e-07 9 7.28253e-07ZM16.65 2.7C16.917 2.7 17.178 2.62082 17.4 2.47248C17.622 2.32414 17.7951 2.1133 17.8972 1.86662C17.9994 1.61994 18.0261 1.3485 17.9741 1.08663C17.922 0.824754 17.7934 0.584207 17.6046 0.395406C17.4158 0.206605 17.1752 0.0780305 16.9134 0.0259405C16.6515 -0.0261496 16.3801 0.000584936 16.1334 0.102763C15.8867 0.204942 15.6759 0.377974 15.5275 0.599981C15.3792 0.821987 15.3 1.083 15.3 1.35C15.3 1.70804 15.4422 2.05142 15.6954 2.30459C15.9486 2.55777 16.292 2.7 16.65 2.7ZM1.35 15.3C1.083 15.3 0.821987 15.3792 0.599981 15.5275C0.377974 15.6759 0.204942 15.8867 0.102763 16.1334C0.000584936 16.3801 -0.0261496 16.6515 0.0259405 16.9134C0.0780305 17.1752 0.206605 17.4158 0.395406 17.6046C0.584207 17.7934 0.824754 17.922 1.08663 17.9741C1.3485 18.0261 1.61994 17.9994 1.86662 17.8972C2.1133 17.7951 2.32414 17.622 2.47248 17.4C2.62082 17.178 2.7 16.917 2.7 16.65C2.7 16.292 2.55777 15.9486 2.30459 15.6954C2.05142 15.4422 1.70804 15.3 1.35 15.3V15.3ZM9 15.3C8.733 15.3 8.47199 15.3792 8.24998 15.5275C8.02797 15.6759 7.85494 15.8867 7.75276 16.1334C7.65058 16.3801 7.62385 16.6515 7.67594 16.9134C7.72803 17.1752 7.8566 17.4158 8.04541 17.6046C8.23421 17.7934 8.47475 17.922 8.73663 17.9741C8.9985 18.0261 9.26994 17.9994 9.51662 17.8972C9.7633 17.7951 9.97414 17.622 10.1225 17.4C10.2708 17.178 10.35 16.917 10.35 16.65C10.35 16.292 10.2078 15.9486 9.95459 15.6954C9.70142 15.4422 9.35804 15.3 9 15.3ZM16.65 15.3C16.383 15.3 16.122 15.3792 15.9 15.5275C15.678 15.6759 15.5049 15.8867 15.4028 16.1334C15.3006 16.3801 15.2738 16.6515 15.3259 16.9134C15.378 17.1752 15.5066 17.4158 15.6954 17.6046C15.8842 17.7934 16.1248 17.922 16.3866 17.9741C16.6485 18.0261 16.9199 17.9994 17.1666 17.8972C17.4133 17.7951 17.6241 17.622 17.7725 17.4C17.9208 17.178 18 16.917 18 16.65C18 16.292 17.8578 15.9486 17.6046 15.6954C17.3514 15.4422 17.008 15.3 16.65 15.3ZM1.35 7.65C1.083 7.65 0.821987 7.72918 0.599981 7.87752C0.377974 8.02586 0.204942 8.2367 0.102763 8.48338C0.000584936 8.73006 -0.0261496 9.0015 0.0259405 9.26337C0.0780305 9.52525 0.206605 9.76579 0.395406 9.95459C0.584207 10.1434 0.824754 10.272 1.08663 10.3241C1.3485 10.3762 1.61994 10.3494 1.86662 10.2472C2.1133 10.1451 2.32414 9.97203 2.47248 9.75002C2.62082 9.52801 2.7 9.267 2.7 9C2.7 8.64196 2.55777 8.29858 2.30459 8.04541C2.05142 7.79223 1.70804 7.65 1.35 7.65V7.65ZM9 7.65C8.733 7.65 8.47199 7.72918 8.24998 7.87752C8.02797 8.02586 7.85494 8.2367 7.75276 8.48338C7.65058 8.73006 7.62385 9.0015 7.67594 9.26337C7.72803 9.52525 7.8566 9.76579 8.04541 9.95459C8.23421 10.1434 8.47475 10.272 8.73663 10.3241C8.9985 10.3762 9.26994 10.3494 9.51662 10.2472C9.7633 10.1451 9.97414 9.97203 10.1225 9.75002C10.2708 9.52801 10.35 9.267 10.35 9C10.35 8.64196 10.2078 8.29858 9.95459 8.04541C9.70142 7.79223 9.35804 7.65 9 7.65ZM16.65 7.65C16.383 7.65 16.122 7.72918 15.9 7.87752C15.678 8.02586 15.5049 8.2367 15.4028 8.48338C15.3006 8.73006 15.2738 9.0015 15.3259 9.26337C15.378 9.52525 15.5066 9.76579 15.6954 9.95459C15.8842 10.1434 16.1248 10.272 16.3866 10.3241C16.6485 10.3762 16.9199 10.3494 17.1666 10.2472C17.4133 10.1451 17.6241 9.97203 17.7725 9.75002C17.9208 9.52801 18 9.267 18 9C18 8.64196 17.8578 8.29858 17.6046 8.04541C17.3514 7.79223 17.008 7.65 16.65 7.65Z" fill="white"/>
</g>
<defs>
<clipPath id="clip0_224_11">
<rect width="18" height="18" fill="white"/>
</clipPath>
</defs>
</svg>
