<svg width="18" height="14" viewBox="0 0 18 14" fill="none" xmlns="http://www.w3.org/2000/svg">
<path d="M6.3 14C6.0613 14 5.83239 13.9263 5.6636 13.795C5.49482 13.6637 5.4 13.4857 5.4 13.3V11.2H1.8C1.32261 11.2 0.864773 11.0525 0.527208 10.7899C0.189642 10.5274 0 10.1713 0 9.8V1.4C0 1.0287 0.189642 0.672601 0.527208 0.41005C0.864773 0.1475 1.32261 0 1.8 0H16.2C16.6774 0 17.1352 0.1475 17.4728 0.41005C17.8104 0.672601 18 1.0287 18 1.4V9.8C18 10.1713 17.8104 10.5274 17.4728 10.7899C17.1352 11.0525 16.6774 11.2 16.2 11.2H10.71L7.38 13.797C7.2 13.93 6.975 14 6.75 14H6.3ZM7.2 9.8V11.956L9.972 9.8H16.2V1.4H1.8V9.8H7.2ZM13.5 6.3H11.7V4.9H13.5V6.3ZM9.9 6.3H8.1V4.9H9.9V6.3ZM6.3 6.3H4.5V4.9H6.3V6.3Z" fill="#597583"/>
</svg>
