<svg width="20" height="15" viewBox="0 0 20 15" fill="none" xmlns="http://www.w3.org/2000/svg">
<path d="M20 6.42857H18.1818V4.28571H16.3636V6.42857H14.5455V8.57143H16.3636V10.7143H18.1818V8.57143H20M6.36364 6.42857V9H10C9.81818 10.0714 8.90909 12.2143 6.36364 12.2143C4.18182 12.2143 2.45455 10.0714 2.45455 7.5C2.45455 4.92857 4.18182 2.78571 6.36364 2.78571C7.63636 2.78571 8.45455 3.42857 8.90909 3.96429L10.6364 2.03571C9.54545 0.75 8.09091 0 6.36364 0C2.81818 0 0 3.32143 0 7.5C0 11.6786 2.81818 15 6.36364 15C10 15 12.4545 12 12.4545 7.71429C12.4545 7.17857 12.4545 6.85714 12.3636 6.42857H6.36364Z" fill="#A1A1A1"/>
</svg>
