<svg width="15" height="15" viewBox="0 0 15 15" fill="none" xmlns="http://www.w3.org/2000/svg">
<path d="M7.5 3.9C6.78799 3.9 6.09196 4.11114 5.49995 4.50671C4.90793 4.90228 4.44651 5.46453 4.17403 6.12234C3.90156 6.78015 3.83027 7.50399 3.96917 8.20233C4.10808 8.90066 4.45095 9.54212 4.95442 10.0456C5.45788 10.5491 6.09934 10.8919 6.79768 11.0308C7.49601 11.1697 8.21985 11.0984 8.87766 10.826C9.53547 10.5535 10.0977 10.0921 10.4933 9.50005C10.8889 8.90804 11.1 8.21201 11.1 7.5C11.1 6.54522 10.7207 5.62955 10.0456 4.95442C9.37045 4.27928 8.45478 3.9 7.5 3.9ZM7.5 9.9C7.02533 9.9 6.56131 9.75924 6.16663 9.49553C5.77195 9.23181 5.46434 8.85698 5.28269 8.41844C5.10104 7.9799 5.05351 7.49734 5.14612 7.03178C5.23872 6.56623 5.4673 6.13859 5.80294 5.80294C6.13859 5.4673 6.56623 5.23872 7.03178 5.14612C7.49734 5.05351 7.9799 5.10104 8.41844 5.28269C8.85698 5.46434 9.23181 5.77195 9.49553 6.16663C9.75924 6.56131 9.9 7.02533 9.9 7.5C9.89802 8.13591 9.64453 8.74521 9.19487 9.19487C8.74521 9.64453 8.13591 9.89802 7.5 9.9ZM10.8 0H4.2C3.08609 0 2.0178 0.442499 1.23015 1.23015C0.442499 2.0178 0 3.08609 0 4.2V10.8C0 11.9139 0.442499 12.9822 1.23015 13.7698C2.0178 14.5575 3.08609 15 4.2 15H10.8C11.9139 15 12.9822 14.5575 13.7698 13.7698C14.5575 12.9822 15 11.9139 15 10.8V4.2C15 3.08609 14.5575 2.0178 13.7698 1.23015C12.9822 0.442499 11.9139 0 10.8 0V0ZM13.8 10.8C13.8 11.194 13.7224 11.5841 13.5716 11.9481C13.4209 12.312 13.1999 12.6427 12.9213 12.9213C12.6427 13.1999 12.312 13.4209 11.9481 13.5716C11.5841 13.7224 11.194 13.8 10.8 13.8H4.2C3.80603 13.8 3.41593 13.7224 3.05195 13.5716C2.68797 13.4209 2.35726 13.1999 2.07868 12.9213C1.8001 12.6427 1.57913 12.312 1.42836 11.9481C1.2776 11.5841 1.2 11.194 1.2 10.8V4.2C1.2 3.40435 1.51607 2.64129 2.07868 2.07868C2.64129 1.51607 3.40435 1.2 4.2 1.2H10.8C11.194 1.2 11.5841 1.2776 11.9481 1.42836C12.312 1.57913 12.6427 1.8001 12.9213 2.07868C13.1999 2.35726 13.4209 2.68797 13.5716 3.05195C13.7224 3.41593 13.8 3.80603 13.8 4.2V10.8ZM12.3 3.6C12.3 3.778 12.2472 3.95201 12.1483 4.10001C12.0494 4.24802 11.9089 4.36337 11.7444 4.43149C11.58 4.49961 11.399 4.51743 11.2244 4.48271C11.0498 4.44798 10.8895 4.36226 10.7636 4.2364C10.6377 4.11053 10.552 3.95016 10.5173 3.77558C10.4826 3.601 10.5004 3.42004 10.5685 3.25559C10.6366 3.09113 10.752 2.95057 10.9 2.85168C11.048 2.75278 11.222 2.7 11.4 2.7C11.6387 2.7 11.8676 2.79482 12.0364 2.9636C12.2052 3.13239 12.3 3.36131 12.3 3.6Z" fill="#A1A1A1"/>
</svg>
