<svg width="18" height="13" viewBox="0 0 18 13" fill="none" xmlns="http://www.w3.org/2000/svg">
<path fill-rule="evenodd" clip-rule="evenodd" d="M16.4997 0C17.3277 0 18 0.646533 18 1.44473V11.5553C18 12.3526 17.3286 13 16.4997 13H1.5003C0.6723 13 0 12.3535 0 11.5553V1.44473C0 0.6474 0.6714 0 1.5003 0H16.4997V0ZM6.4512 7.65093L2.0322 11.856H15.8247L11.4534 7.69427L9 9.32967L6.4512 7.65093V7.65093ZM16.776 4.15307L12.4596 7.02693L16.776 11.1315V4.15307ZM1.2249 4.20593V10.9971L5.4423 6.9836L1.2249 4.20593ZM16.4853 1.14487H1.5282C1.44607 1.14116 1.36558 1.16782 1.3032 1.2194C1.27548 1.2433 1.25408 1.27323 1.24078 1.30669C1.22747 1.34015 1.22265 1.37618 1.2267 1.4118V2.8158L9 7.9352L16.7796 2.76553V1.47247C16.7805 1.35633 16.7526 1.27227 16.6968 1.2194C16.6691 1.19344 16.636 1.17339 16.5997 1.16054C16.5635 1.1477 16.5248 1.14236 16.4862 1.14487H16.4853Z" fill="#597583"/>
</svg>
