<svg width="18" height="18" viewBox="0 0 18 18" fill="none" xmlns="http://www.w3.org/2000/svg">
<g clip-path="url(#clip0_224_9)">
<path d="M6.9235 0.130158C6.03138 0.130067 5.14798 0.305704 4.32375 0.647039C3.49951 0.988375 2.75058 1.48872 2.11973 2.11951C1.48887 2.7503 0.988449 3.49918 0.64703 4.32338C0.30561 5.14758 0.129883 6.03096 0.129883 6.92308C0.129792 7.81526 0.305452 8.69871 0.646831 9.52299C0.98821 10.3473 1.48862 11.0962 2.11948 11.7271C2.75035 12.358 3.49931 12.8584 4.32359 13.1997C5.14787 13.5411 6.03132 13.7168 6.9235 13.7167C8.50888 13.7167 9.96481 13.1552 11.121 12.2455L11.7267 12.8513C11.6023 13.093 11.5583 13.3681 11.601 13.6365C11.6437 13.905 11.7709 14.1528 11.9642 14.3439L15.1447 17.5459C15.6383 18.0402 16.4462 18.0402 16.9405 17.5459L17.5463 16.9401C17.7834 16.7014 17.9166 16.3786 17.9166 16.0422C17.9166 15.7057 17.7834 15.3829 17.5463 15.1442L14.3443 11.9638C14.1518 11.7718 13.9025 11.6471 13.6335 11.6082C13.3645 11.5693 13.09 11.6182 12.851 11.7478L12.2453 11.142C13.0382 10.1414 13.5331 8.93757 13.6732 7.66858C13.8133 6.39959 13.593 5.1168 13.0375 3.96729C12.4819 2.81779 11.6137 1.84811 10.5323 1.16943C9.45094 0.490761 8.2002 0.130568 6.9235 0.130158ZM6.9235 1.38462C8.39239 1.38462 9.80112 1.96813 10.8398 3.0068C11.8784 4.04546 12.462 5.45419 12.462 6.92308C12.462 8.39197 11.8784 9.8007 10.8398 10.8394C9.80112 11.878 8.39239 12.4615 6.9235 12.4615C5.45461 12.4615 4.04588 11.878 3.00721 10.8394C1.96855 9.8007 1.38504 8.39197 1.38504 6.92308C1.38504 5.45419 1.96855 4.04546 3.00721 3.0068C4.04588 1.96813 5.45461 1.38462 6.9235 1.38462ZM3.41834 5.17085C3.04909 5.76894 2.85438 6.45834 2.85619 7.16123C2.85537 7.65868 2.95274 8.1514 3.14273 8.61113C3.33271 9.07087 3.61157 9.48859 3.96332 9.84033C4.31507 10.1921 4.73279 10.4709 5.19252 10.6609C5.65226 10.8509 6.14498 10.9483 6.64242 10.9475C7.42444 10.9459 8.1871 10.7042 8.82734 10.2552C8.65475 10.2711 8.48143 10.2781 8.30811 10.2759C7.66558 10.2776 7.02905 10.1522 6.4351 9.90713C5.84115 9.66202 5.30148 9.30197 4.8471 8.84766C4.39273 8.39335 4.0326 7.85373 3.78741 7.25981C3.54221 6.6659 3.41679 6.02939 3.41834 5.38685C3.41834 5.31485 3.41488 5.24285 3.41834 5.17085Z" fill="#436372"/>
</g>
<defs>
<clipPath id="clip0_224_9">
<rect width="18" height="18" fill="white"/>
</clipPath>
</defs>
</svg>
