<svg width="12" height="12" viewBox="0 0 12 12" fill="none" xmlns="http://www.w3.org/2000/svg">
<path d="M11.6772 5.52778L9.25634 7.61667L10.0222 10.8444C10.0574 10.9797 10.0623 11.1216 10.0364 11.2592C10.0105 11.3967 9.95448 11.5262 9.87276 11.6378C9.79104 11.7494 9.68573 11.8401 9.56495 11.9029C9.44416 11.9657 9.3111 11.9989 9.176 12C9.01054 11.9992 8.84879 11.9491 8.71004 11.8556L6.00536 10.0833H5.99464L3.48277 11.7333C3.3205 11.8395 3.13138 11.8931 2.9396 11.8871C2.74782 11.8812 2.56212 11.816 2.40625 11.7C2.24566 11.5785 2.12404 11.4096 2.05718 11.2154C1.99032 11.0212 1.98131 10.8107 2.03134 10.6111L2.75437 7.66111L0.322833 5.52778C0.184881 5.40821 0.0846211 5.24851 0.0349814 5.06928C-0.0146583 4.89006 -0.011402 4.69951 0.0443303 4.52222C0.0986022 4.34761 0.202138 4.19391 0.341543 4.081C0.480948 3.96809 0.649808 3.90116 0.82628 3.88889L3.98621 3.67778L5.18592 0.577778C5.25025 0.408002 5.36224 0.262169 5.50739 0.159158C5.65253 0.0561468 5.82414 0.000701602 6 0C6.17586 0.000701602 6.34747 0.0561468 6.49261 0.159158C6.63776 0.262169 6.74975 0.408002 6.81408 0.577778L7.99236 3.66111L11.1737 3.88889C11.3504 3.90042 11.5196 3.96706 11.6592 4.08008C11.7987 4.19309 11.902 4.34721 11.9557 4.52222C12.0114 4.69951 12.0147 4.89006 11.965 5.06928C11.9154 5.24851 11.8151 5.40821 11.6772 5.52778V5.52778Z" fill="#FFCC00"/>
</svg>
