<svg width="12" height="11" viewBox="0 0 12 11" fill="none" xmlns="http://www.w3.org/2000/svg">
<path d="M11.6772 5.06713L9.25634 6.98194L10.0222 9.94074C10.0574 10.0648 10.0623 10.1948 10.0364 10.3209C10.0105 10.447 9.95448 10.5657 9.87276 10.668C9.79104 10.7703 9.68573 10.8534 9.56495 10.911C9.44416 10.9685 9.3111 10.999 9.176 11C9.01054 10.9993 8.84879 10.9533 8.71004 10.8676L6.00536 9.24306H5.99464L3.48277 10.7556C3.3205 10.8529 3.13138 10.902 2.9396 10.8965C2.74782 10.8911 2.56212 10.8314 2.40625 10.725C2.24566 10.6136 2.12404 10.4588 2.05718 10.2808C1.99032 10.1028 1.98131 9.90979 2.03134 9.72685L2.75437 7.02268L0.322833 5.06713C0.184881 4.95752 0.0846211 4.81114 0.0349814 4.64684C-0.0146583 4.48255 -0.011402 4.30789 0.0443303 4.14537C0.0986022 3.98531 0.202138 3.84441 0.341543 3.74091C0.480948 3.63741 0.649808 3.57607 0.82628 3.56481L3.98621 3.3713L5.18592 0.52963C5.25025 0.374002 5.36224 0.240321 5.50739 0.145895C5.65253 0.0514679 5.82414 0.000643135 6 0C6.17586 0.000643135 6.34747 0.0514679 6.49261 0.145895C6.63776 0.240321 6.74975 0.374002 6.81408 0.52963L7.99236 3.35602L11.1737 3.56481C11.3504 3.57538 11.5196 3.63647 11.6592 3.74007C11.7987 3.84367 11.902 3.98494 11.9557 4.14537C12.0114 4.30789 12.0147 4.48255 11.965 4.64684C11.9154 4.81114 11.8151 4.95752 11.6772 5.06713V5.06713Z" fill="#FFCC00"/>
</svg>
