<svg width="18" height="17" viewBox="0 0 18 17" fill="none" xmlns="http://www.w3.org/2000/svg">
<path d="M17.5158 7.83102L13.8845 10.7903L15.0333 15.363C15.0861 15.5546 15.0934 15.7556 15.0545 15.9505C15.0157 16.1453 14.9317 16.3288 14.8091 16.4869C14.6866 16.645 14.5286 16.7735 14.3474 16.8624C14.1662 16.9514 13.9667 16.9984 13.764 17C13.5158 16.9989 13.2732 16.9279 13.0651 16.7954L9.00803 14.2847H8.99197L5.22415 16.6222C4.98075 16.7727 4.69706 16.8485 4.4094 16.8401C4.12174 16.8317 3.84318 16.7394 3.60937 16.575C3.36849 16.4028 3.18605 16.1636 3.08576 15.8885C2.98547 15.6134 2.97197 15.3151 3.04701 15.0324L4.13156 10.8532L0.484249 7.83102C0.277321 7.66163 0.126932 7.43539 0.0524721 7.18149C-0.0219874 6.92758 -0.017103 6.65764 0.0664954 6.40648C0.147903 6.15911 0.303206 5.94137 0.512314 5.78141C0.721422 5.62145 0.974712 5.52665 1.23942 5.50926L5.97932 5.21018L7.77887 0.818518C7.87538 0.578003 8.04337 0.371406 8.26108 0.225473C8.47879 0.0795413 8.73621 0.000993936 9 0C9.26379 0.000993936 9.52121 0.0795413 9.73892 0.225473C9.95663 0.371406 10.1246 0.578003 10.2211 0.818518L11.9885 5.18657L16.7606 5.50926C17.0256 5.52559 17.2794 5.62 17.4887 5.78011C17.698 5.94022 17.8531 6.15855 17.9335 6.40648C18.0171 6.65764 18.022 6.92758 17.9475 7.18149C17.8731 7.43539 17.7227 7.66163 17.5158 7.83102V7.83102Z" fill="#FFCC00"/>
</svg>
